<?xml version="1.0" encoding="utf-8"?>
<!-- Generator: Adobe Illustrator 28.3.0, SVG Export Plug-In . SVG Version: 6.00 Build 0)  -->
<svg version="1.1" id="Layer_1" xmlns="http://www.w3.org/2000/svg" xmlns:xlink="http://www.w3.org/1999/xlink" x="0px" y="0px"
	 viewBox="0 0 2013.7 513.2" style="enable-background:new 0 0 2013.7 513.2;" xml:space="preserve">
<g>
	<g>
		<path d="M290.6,211.9c0,64.6-50,115-118.1,115c-52.6,0-91.8-27.8-120.2-68.4c-5.3,19.2-8.8,40.1-10,62.4H0V6.1h42.4v181.6
			c26.2-51.8,72.6-90.8,133.2-90.8C240.6,96.9,290.6,146.8,290.6,211.9z M248.2,211.9c0-44.2-34.5-72.6-72.6-72.6
			c-45.8,0-84.1,30.6-107.5,79.6c23.1,37.7,57.9,65.7,104.5,65.7C217.2,284.5,248.2,252.9,248.2,211.9z"/>
		<path d="M610,102.9v217.9h-42.4c-1.2-22.2-4.6-43.2-10-62.4c-28.4,40.6-67.6,68.4-120.2,68.4c-68,0-118.1-50.4-118.1-115
			c0-65,50-115,115-115c60.6,0,107,39,133.2,90.8v-84.7H610z M541.9,218.8c-23.4-49-61.8-79.6-107.5-79.6
			c-38.1,0-72.6,28.4-72.6,72.6c0,41,31,72.6,75.7,72.6C484.1,284.5,518.9,256.6,541.9,218.8z"/>
		<path d="M753.9,278.5h159.5v42.4H647.1v-39.3c72.6-24.8,151.7-74.2,195.3-136.2H653.2v-42.4h260.3
			C890,180,822.4,240.3,753.9,278.5z"/>
		<path d="M1225.2,102.9v217.9h-42.4c-1.2-22.2-4.6-43.2-10-62.4c-28.4,40.6-67.6,68.4-120.2,68.4c-68,0-118.1-50.4-118.1-115
			c0-65,50-115,115-115c60.6,0,107,39,133.2,90.8v-84.7H1225.2z M1157.1,218.8c-23.4-49-61.8-79.6-107.5-79.6
			c-38.1,0-72.6,28.4-72.6,72.6c0,41,31,72.6,75.7,72.6C1099.3,284.5,1134.1,256.6,1157.1,218.8z"/>
		<path d="M1469.9,103.2v42.9c-6.6-2-27.2-6.8-48.4-6.8c-75.5,0-102.9,45.4-102.9,69.6v112h-42.4V102.9h42.4v38.2
			c21.3-25.8,53.2-44.2,102.9-44.2C1442.5,96.9,1463,101.4,1469.9,103.2z"/>
		<path d="M1487.4,48.6c13.6-5.9,24.5-16.8,30.4-30.4c5.8,13.6,16.6,24.4,30.1,30.1c-13.6,5.9-24.5,16.8-30.4,30.4
			C1511.8,65.1,1501,54.3,1487.4,48.6z M1496.5,320.9V102.9h42.4v217.9H1496.5z"/>
		<path d="M1771.2,12.1v36.3c-5.9-2.4-34.1-9.1-66.6-9.1c-57,0-70.2,35.2-72.3,63.6h60.2v42.4h-60.5v175.6h-42.4V112
			c0-71.7,43.8-112,112-112C1736.1,0,1763.4,9.3,1771.2,12.1z"/>
		<path d="M2013.7,102.9v154.4c0,110.9-54.6,166.5-160.4,166.5c-55,0-91.9-14.7-118-30.4v-45c17.8,10.6,52.7,33,118,33
			c79.8,0,113.5-36.6,117-105.9c0.8-5.6,1.1-47.3,1.1-53.9c-26.6,57.6-79.6,105.3-142.3,105.3c-64.6,0-105.9-51.7-105.9-130.2
			c0-37.6,4.6-81.9,6.1-93.8h42.5c-1.6,11.7-6.3,54-6.3,93.8c0,36.4,13.4,87.8,66.6,87.8c66.6,0,127.2-75.7,139.2-181.6H2013.7z"/>
	</g>
	<g>
		<path d="M1221.8,427.9c0,0.9-0.2,1.8-0.7,2.9c-0.5,1-1.3,2.2-2.6,3.5c-1.2,1.3-2.9,2.8-5,4.4c-2.1,1.6-4.7,3.5-8,5.6
			c-3.2,2.1-7.1,4.5-11.6,7.1c-4.5,2.6-9.7,5.6-15.7,9c-2.7,1.5-5,2.8-6.9,3.9s-3.3,2-4.3,2.6c-0.6,0.4-1.3,1-2.2,1.8
			c-0.9,0.8-1.9,1.9-3,3.1c-1.8,1.7-3.5,3.4-5.4,5.1s-3.7,3.4-5.6,4.8c-1.9,1.4-3.9,2.6-5.9,3.5c-2,0.9-4.2,1.4-6.5,1.4
			c-2.6,0-4.6-0.4-6.2-1.3c-1.6-0.9-2.4-2.2-2.4-4c0-0.9,0.4-1.9,1.1-3.1c0.7-1.1,1.7-2.2,2.8-3.4c1.1-1.1,2.4-2.2,3.8-3.3
			c1.4-1.1,2.7-2.1,4.1-3.1c1.3-0.9,2.5-1.8,3.6-2.5c1.1-0.7,1.9-1.2,2.4-1.6c2.2-1.4,4-2.5,5.3-3.4c1.3-0.9,2-1.4,2.1-1.5
			c2.5-1.8,4.8-3.7,6.9-5.7c2.1-2,3.9-4,5.4-6c1.4-1.8,2.4-3.8,3.1-6.1c0.7-2.2,1-4.6,1-7.1c0-0.8-0.1-1.8-0.4-3.1
			c-0.3-1.3-0.6-2.5-1.1-3.7c-0.5-1.2-1-2.2-1.7-3.1c-0.7-0.9-1.4-1.3-2.3-1.3c-2.1,0-4.3,0.8-6.6,2.3c-2.3,1.5-4.6,3.4-6.8,5.5
			c-2.2,2.1-4.4,4.6-6.6,7.4c-2.2,2.8-4.5,5.9-6.9,9.2c-1.6,2.4-2.9,4.5-3.8,6.5c-0.9,2-1.6,3.8-2.1,5.4c-0.5,1.6-0.8,3.1-0.9,4.5
			c-0.1,1.3-0.2,2.6-0.3,3.6c0,1.3-0.3,2.5-0.8,3.7c-0.5,1.2-1.2,2.2-1.9,3.2c-0.8,0.9-1.7,1.7-2.6,2.2s-2,0.8-3,0.8
			c-2.9,0-4.9-0.9-6-2.8c-1.1-1.9-1.6-4.8-1.6-8.7c0-0.1,0-0.7,0.1-1.7c0-1,0.1-2.3,0.1-3.7c0-1.5,0.1-3,0.2-4.7s0.1-3.2,0.2-4.7
			c0-1.4,0.1-2.7,0.1-3.7c0-1,0.1-1.5,0.1-1.6c0.1-2.7,0.3-5.4,0.5-8c0.2-2.6,0.4-5.3,0.7-8c0.3-2.7,0.5-5.5,0.8-8.4
			c0.3-2.9,0.7-5.9,1.1-9.1c0.8-6.1,1.6-12,2.3-17.7c0.8-5.7,1.9-11.3,3.3-16.7c0.1-0.4,0.3-1.1,0.7-2.2c0.4-1,0.9-2.1,1.5-3.2
			c0.6-1.1,1.4-2.1,2.3-2.9c0.9-0.8,2-1.3,3.1-1.3c2.2,0,3.9,0.3,5.1,1c1.2,0.7,2.1,1.5,2.7,2.5c0.6,1,0.9,2,1.1,3.1
			c0.1,1.1,0.2,2,0.2,2.8c0,0.7-0.2,2-0.7,3.7c-0.5,1.7-1,4.1-1.7,7.1c-1.1,4.7-2.1,9.8-3.1,15.1c-1,5.3-1.9,10.6-2.5,15.7
			c-0.1,1-0.3,2.3-0.5,3.8c-0.2,1.5-0.3,3.1-0.5,4.8c-0.2,1.7-0.3,3.3-0.5,5c-0.2,1.6-0.3,3.1-0.5,4.5c2.5-4.6,5.3-8.8,8.2-12.4
			c2.9-3.6,6.3-6.9,10.1-9.6c2.6-1.9,5.3-3.3,8-4.3c2.7-1,5.3-1.5,7.7-1.5c2.8,0,5.4,0.7,7.9,2c2.5,1.3,4.6,3.1,6.5,5.3
			c1.9,2.2,3.3,4.6,4.4,7.3c1.1,2.7,1.6,5.4,1.6,8c0,0.5-0.1,1.1-0.2,2c-0.1,0.9-0.3,1.9-0.6,2.9c-0.3,1.1-0.7,2.2-1.3,3.3
			c-0.5,1.1-1.2,2.2-2.1,3.3c3.9-2.5,7.7-4.8,11.2-7.2c3.5-2.3,7.1-4.6,10.7-6.7c1.8-1.1,3.2-2,4.3-2.8c1.1-0.8,2.1-1.4,3-1.9
			c2.4-1.5,4.1-2.2,5-2.2c1.8,0,3,0.5,3.8,1.6C1221.4,425.5,1221.8,426.6,1221.8,427.9z"/>
		<path d="M1280.9,416.8c0,1-0.1,2.4-0.2,4.3c-0.1,1.8-0.3,3.8-0.5,5.8c-0.2,2-0.3,4-0.5,5.9c-0.2,1.9-0.3,3.5-0.3,4.7
			c-0.1,3-0.4,6.1-0.7,9.3s-0.8,6.4-1.3,9.6c-0.5,3.2-1.1,6.4-1.7,9.6c-0.7,3.2-1.3,6.2-2,9.1c-0.6,2.3-1.2,4.7-1.9,7.1
			c-0.7,2.4-1.6,4.7-2.5,7c-0.9,2.3-1.9,4.5-3,6.7c-1.1,2.2-2.2,4.1-3.3,5.9c-4.9,7.6-11.9,11.3-21,11.3c-5.7,0-11.3-1.1-16.9-3.3
			c-1.9-0.7-4-1.7-6.1-2.9c-2.1-1.2-4-2.5-5.7-3.8c-1.7-1.3-3.1-2.7-4.2-4.1c-1.1-1.4-1.7-2.7-1.7-4c0-0.8,0.1-1.7,0.2-2.5
			c0.1-0.9,0.4-1.6,0.8-2.3c0.4-0.7,0.9-1.3,1.5-1.7c0.6-0.4,1.4-0.7,2.5-0.7c0.7,0,1.4,0.2,1.9,0.5c0.6,0.3,1.1,0.7,1.6,1.3
			c1.8,1.9,3.6,3.4,5.4,4.8c1.9,1.3,3.8,2.4,5.9,3.3c2.1,0.9,4.3,1.5,6.6,1.9c2.3,0.4,4.9,0.6,7.5,0.6c1.5,0,3-0.5,4.4-1.4
			s2.7-2.2,3.9-3.8c1.2-1.6,2.3-3.4,3.4-5.5c1-2.1,2-4.2,2.8-6.5c0.8-2.3,1.6-4.6,2.2-6.9c0.6-2.3,1.1-4.5,1.6-6.5
			c0.5-2.4,0.9-4.8,1.2-7.2c0.3-2.4,0.6-4.9,0.8-7.7c-1.4,1.2-3.1,2.5-5,3.8c-1.9,1.3-3.9,2.6-5.9,3.9c-2.1,1.3-4.2,2.5-6.4,3.7
			c-2.2,1.2-4.4,2.2-6.5,3.1c-2.2,0.9-4.2,1.6-6.2,2.1c-2,0.5-3.8,0.8-5.4,0.8c-2.6,0-4.9-0.5-6.9-1.6c-1.9-1.1-3.5-2.5-4.8-4.2
			s-2.2-3.7-2.8-5.9c-0.6-2.2-0.9-4.5-0.9-6.7c0-1.5,0.1-3.3,0.3-5.3c0.2-2,0.5-4,0.9-6c0.3-2,0.8-4,1.2-5.9
			c0.5-1.9,0.9-3.6,1.4-5.1c0.1-0.2,0.3-0.9,0.6-1.9c0.3-1,0.7-2.2,1-3.5c0.4-1.3,0.7-2.5,1.1-3.6c0.3-1.1,0.6-1.9,0.7-2.2
			c0.6-1.7,1.1-3.1,1.7-4.4c0.6-1.3,1.3-2.3,2.1-3.2c0.8-0.9,1.9-1.5,3.1-1.9c1.2-0.4,2.7-0.7,4.5-0.7c1.3,0,2.4,0.3,3.3,0.8
			c1,0.5,1.7,1.3,2.3,2.4c0.6,1.1,0.9,2.1,1,3c0.1,0.9,0.1,1.9,0.1,2.9c0,0.4-0.3,1.1-0.8,2.3c-0.5,1.2-1.1,2.4-1.7,3.8
			c-0.7,1.3-1.3,2.6-1.9,3.8c-0.6,1.2-1,1.9-1.1,2.3c-1.4,3.4-2.5,6.4-3.4,9.1c-0.9,2.7-1.4,5.4-1.4,8.2c0,1.3,0.1,2.6,0.4,3.7
			c0.3,1.1,0.6,2.1,1,3c0.4,0.8,0.9,1.5,1.4,1.9c0.5,0.5,1.1,0.7,1.6,0.7c1.5,0,3.3-0.3,5.4-0.9c2.1-0.6,4.2-1.4,6.5-2.4
			c2.2-1,4.5-2.3,6.8-3.7c2.3-1.4,4.4-3,6.3-4.7c1.9-1.7,3.5-3.5,4.9-5.4c1.4-1.9,2.3-3.8,2.8-5.8c0.1-0.5,0.2-1.2,0.3-2.2
			c0.1-1,0.1-2.1,0.2-3.4c0-1.3,0.1-2.6,0.1-4.1c0-1.5,0.1-2.9,0.2-4.2c0.1-1.3,0.2-2.5,0.3-3.7c0.1-1.1,0.3-2,0.5-2.6
			c0.8-2.5,1.8-4.4,3.1-5.7c1.3-1.3,3-1.9,5.1-1.9c1.7,0,3.1,0.2,4.2,0.6c1.1,0.4,1.9,1,2.5,1.9c0.6,0.8,1,1.9,1.2,3.2
			C1280.8,413.5,1280.9,415.1,1280.9,416.8z"/>
		<path d="M1455.7,414.5c0,2.9-0.5,6.2-1.4,9.8c-1,3.6-2.3,7.4-4,11.2c-1.7,3.9-3.8,7.7-6.3,11.4c-2.5,3.8-5.2,7.3-8.3,10.5
			c-4.8,5.1-9.3,9.2-13.5,12.6c-4.2,3.3-8.4,6-12.6,7.9c-4.2,2-8.5,3.3-12.9,4.1c-4.4,0.8-9.3,1.1-14.5,1.1c-2.8,0-5.5-0.5-8-1.5
			c-2.6-1-5-2.4-7.2-4.1c-2.2-1.7-4.2-3.7-6.1-6.1c-1.8-2.3-3.4-4.8-4.7-7.3c-1.3-2.5-2.3-5.2-3-7.9c-0.7-2.7-1.1-5.3-1.1-7.8
			c0-4.4,0.7-9.2,2.1-14.5c1.4-5.3,3.3-10.6,5.9-15.9c2.5-5.3,5.6-10.5,9.2-15.5c3.6-5,7.6-9.4,12-13.3c4.4-3.9,9.2-7,14.4-9.3
			c5.2-2.3,10.6-3.5,16.2-3.5c2.9,0,5.8,0.2,8.6,0.5c2.8,0.3,5.5,0.9,8,1.5c2.5,0.7,4.8,1.5,7,2.5c2.2,1,4,2.1,5.7,3.3
			c3.3,2.5,6,4.9,7.9,7.1c1.9,2.3,3.4,4.5,4.3,6.9c1,2.3,1.6,4.8,1.8,7.4C1455.5,408.5,1455.7,411.4,1455.7,414.5z M1412,390.5
			c-2.9,0-5.7,0.6-8.3,1.8c-2.6,1.2-5.2,2.8-7.5,4.8c-2.4,2-4.7,4.2-6.8,6.7c-2.2,2.5-4.2,5-6.2,7.5c-1.7,2.3-3.4,4.8-5,7.7
			c-1.6,2.9-3.1,5.9-4.3,9.1c-1.2,3.2-2.2,6.5-3,9.9c-0.7,3.4-1.1,6.7-1.1,10.1c0,3,0.5,5.7,1.4,8.1c0.9,2.5,2.2,4.6,3.8,6.3
			c1.6,1.7,3.4,3.1,5.4,4.1c2,1,4.1,1.5,6.2,1.5c3.5,0,6.9-0.5,10.2-1.5c3.3-1,6.5-2.3,9.5-4c3-1.7,5.9-3.7,8.7-5.9
			c2.7-2.3,5.3-4.7,7.5-7.3c2.3-2.6,4.4-5.4,6.2-8.2c1.8-2.9,3.4-5.7,4.7-8.5c1.3-2.7,2.3-5.9,3.2-9.5s1.4-7.3,1.4-11
			c0-1.5-0.1-3-0.2-4.5c-0.2-1.4-0.5-2.8-1-4.2c-0.4-1.3-1.3-2.6-2.5-4.1c-1.3-1.5-2.9-2.9-5-4.2c-2.1-1.3-4.5-2.4-7.4-3.3
			C1418.9,390.9,1415.7,390.5,1412,390.5z"/>
		<path d="M1539.5,422.9c0,0.4-0.1,1-0.3,1.7c-0.2,0.7-0.5,1.4-0.8,2.1c-0.4,0.7-0.8,1.3-1.4,1.8c-0.6,0.5-1.3,0.8-2.1,0.8
			c-0.2,0-0.6,0-1.2,0c-0.6,0-1.3-0.1-1.9-0.1c-0.7,0-1.3-0.1-1.9-0.1c-0.6,0-1,0-1.3,0c-7.7,0.4-14.4,3.2-20.1,8.3
			c-1.3,1.2-2.6,2.5-4,4.1c-1.4,1.6-2.7,3.3-4,5.2c-1.3,1.9-2.6,3.9-3.8,6c-1.2,2.1-2.3,4.4-3.3,6.7c-0.8,1.9-1.6,3.9-2.3,5.9
			c-0.7,2-1.4,4.1-1.9,6.4c-0.3,1.2-0.6,2.3-0.7,3.2c-0.2,0.9-0.4,2-0.8,3.2c-0.2,0.7-0.6,1.4-1.2,1.9s-1.2,1-1.9,1.3
			c-0.7,0.3-1.5,0.6-2.3,0.8c-0.8,0.2-1.6,0.3-2.4,0.3c-3,0-5-1.3-6.1-4c-1.1-2.7-1.7-6.7-1.7-12c0-1.2,0-2.3,0-3.4
			c0-1.1,0.1-2.1,0.1-3.2c0.1-1.1,0.1-2.2,0.2-3.4c0.1-1.2,0.2-2.5,0.3-4c0.2-2.2,0.4-4.8,0.8-7.8c0.3-3,0.7-6,1-9.1
			c0.4-3.1,0.8-6.1,1.2-8.9c0.4-2.9,0.9-5.3,1.4-7.3c0.6-2.5,1.5-4.4,2.8-5.8c1.3-1.4,3.3-2.1,5.8-2.1c0.7,0,1.5,0.2,2.3,0.6
			c0.8,0.4,1.4,0.9,2.1,1.4c0.6,0.6,1.1,1.2,1.5,1.8c0.4,0.7,0.6,1.2,0.7,1.7l0.1,1.3c0,1.3-0.1,2.8-0.3,4.6
			c-0.2,1.8-0.5,3.6-0.9,5.6c-0.4,2-0.8,4-1.3,6c-0.4,2-0.9,3.9-1.3,5.8c-0.4,1.8-0.8,3.5-1.2,5.1c-0.3,1.6-0.6,2.8-0.8,3.9
			c1.6-3.4,3.4-6.7,5.2-9.9c1.9-3.2,3.8-6.1,6-8.8c2.1-2.7,4.4-5.1,6.9-7.3c2.5-2.1,5.1-3.8,7.9-5.1c2.2-1,4.3-1.8,6.1-2.3
			c1.9-0.5,3.5-0.8,5-0.8c1.8,0,3.6,0.2,5.5,0.6c1.9,0.4,3.6,0.9,5.1,1.6c1.6,0.7,2.8,1.6,3.9,2.6
			C1539,420.4,1539.5,421.6,1539.5,422.9z"/>
		<path d="M1620.1,433.9c0,1.1-0.4,2.4-1.2,4.1c-0.8,1.6-1.9,3.5-3.3,5.5c-1.4,2-3.1,4.2-5,6.5c-1.9,2.3-4.1,4.7-6.3,7.1
			c-2.5,2.6-5.1,5.2-8,7.8c-2.9,2.6-5.9,5-9.2,7.4c-3.2,2.3-6.4,4.1-9.5,5.4c-3.1,1.3-6.1,1.9-8.8,1.9c-3.2,0-6.1-0.5-8.5-1.6
			c-2.4-1.1-4.4-2.6-6.1-4.5c-1.7-1.9-3.1-4-4.1-6.5c-1.1-2.4-1.9-5-2.5-7.7c-0.6-2.7-1.1-5.5-1.3-8.2c-0.2-2.8-0.3-5.4-0.3-7.9
			c0-1,0.1-2.4,0.2-4.4s0.3-4,0.6-6.2c0.3-2.2,0.5-4.2,0.8-6.3c0.3-2,0.6-3.6,0.9-4.8c0.7-2.3,2.3-4.4,4.8-6.5
			c2.4-1.9,5.1-2.9,8.1-2.9c3,0,4.5,1.8,4.5,5.4c0,1.7-0.2,3.5-0.5,5.5c-0.3,1.9-0.6,3.8-1,5.7c-0.6,3.4-1,6.4-1.3,9.1
			c-0.2,2.7-0.3,5.1-0.3,7.2c0,2.4,0.1,4.7,0.4,6.9c0.3,2.2,0.7,4.2,1.2,5.9c0.5,1.7,1.2,3.1,2,4.2c0.8,1.1,1.8,1.6,2.9,1.6
			c1.4,0,2.8-0.1,4.3-0.4c1.5-0.3,3.3-0.9,5.4-2.1c4-2.2,8.2-5.1,12.7-8.8c1.6-1.3,3.4-2.8,5.4-4.6c2-1.8,4-3.6,6-5.5
			c2-1.9,3.9-3.7,5.6-5.5c1.8-1.8,3.2-3.4,4.2-4.7c0.1-0.2,0.3-0.5,0.6-0.9c0.3-0.3,0.5-0.7,0.9-1.1c0.3-0.4,0.7-0.7,1.1-0.9
			c0.4-0.3,0.8-0.4,1.1-0.4c0.7,0,1.3,0.1,1.6,0.3s0.7,0.8,1.1,1.9C1619.8,432.2,1620.1,433.1,1620.1,433.9z M1576.8,376.7
			c0,1.5-0.2,3-0.7,4.3c-0.5,1.4-1.1,2.7-2,3.9c-1.8,2.5-4.5,3.7-8.1,3.7c-1.3,0-2.6-0.1-4-0.3c-1.3-0.2-2.6-0.6-3.6-1
			c-1.1-0.4-1.9-0.9-2.6-1.6c-0.7-0.6-1-1.4-1-2.2c0-1.4,0.4-3,1.1-4.6c0.7-1.6,1.7-3.1,2.9-4.5c1.2-1.4,2.5-2.5,3.9-3.4
			c1.4-0.9,2.8-1.4,4.1-1.4c1.6,0,3.1,0.1,4.3,0.3s2.3,0.6,3.2,1.1c0.9,0.5,1.5,1.2,2,2.2C1576.6,374.1,1576.8,375.3,1576.8,376.7z"
			/>
		<path d="M1708,420.5c0,0.8-0.2,1.7-0.5,2.6c-0.3,0.9-0.8,1.8-1.4,2.7c-0.6,0.9-1.3,1.7-2.1,2.4c-0.8,0.7-1.5,1.4-2.3,1.9
			c-1.7,1.1-4.1,2.1-7.3,2.9c-3.2,0.8-7,1.3-11.5,1.3c-1.3,0-2.7-0.1-4.1-0.3c-1.5-0.2-2.9-0.4-4.5-0.8c-1.5-0.3-3-0.7-4.5-1.2
			c-1.5-0.5-2.9-1-4.2-1.6c0.3,0.4,0.5,1,0.7,1.7c0.2,0.7,0.3,1.5,0.4,2.3c0.1,0.8,0.1,1.5,0.1,2.3c0,0.7,0,1.3,0,1.7
			c0,3-0.5,5.9-1.6,8.9c-1,2.9-2.4,5.8-4.1,8.5c-1.7,2.7-3.7,5.2-5.8,7.5c-2.2,2.3-4.4,4.3-6.7,5.9c-1.8,1.3-3.8,2.5-6,3.5
			c-2.2,1-4.5,1.8-7,2.4c-2.4,0.7-4.9,1.1-7.5,1.5c-2.6,0.3-5.2,0.5-7.8,0.5c-2.2,0-4.3-0.5-6.3-1.6c-2-1.1-3.7-2.4-5.3-4.1
			c-1.5-1.7-2.7-3.6-3.6-5.7c-0.9-2.1-1.4-4.2-1.4-6.3c0-3.7,0.5-7.3,1.5-10.7c1-3.4,2.3-6.7,4-9.9s3.6-6.3,5.8-9.4
			c2.2-3.1,4.6-6.1,7-9.1c1.4-1.8,3.1-3.5,4.9-5.1c1.9-1.7,3.8-3.2,5.9-4.5c2.1-1.3,4.1-2.4,6.3-3.2c2.1-0.8,4.1-1.2,6.1-1.2
			c1.6,0,3,0.2,4.2,0.6c1.2,0.4,2.3,0.9,3.3,1.6c1,0.7,2,1.5,2.9,2.5c0.9,1,1.9,2.1,2.9,3.3l1.5,1.6c0.4,0.4,1.4,0.9,3,1.7
			c1.6,0.7,3.6,1.5,5.9,2.2c2.3,0.7,4.7,1.4,7.2,1.9s4.8,0.8,6.8,0.8c2.1,0,4.1,0,5.9-0.1c1.9,0,3.7-0.2,5.6-0.5
			c1.9-0.3,3.8-0.8,5.9-1.4c2.1-0.6,4.3-1.5,6.9-2.6c0.2,0.4,0.4,1,0.5,1.6C1707.9,419.6,1708,420.1,1708,420.5z M1654,436.2
			c0-1.2-0.1-2.4-0.2-3.6c-0.1-1.3-0.4-2.4-0.7-3.5c-0.4-1.1-0.9-2-1.5-2.9c-0.7-0.8-1.5-1.4-2.6-1.6c-1.6-0.4-2.9-0.9-4-1.4
			c-1-0.5-1.8-0.9-2.4-1.4c-0.6-0.4-1-0.8-1.3-1c-0.2-0.3-0.4-0.4-0.5-0.4c-0.4,0-0.9,0.3-1.6,0.9c-0.7,0.6-1.4,1.4-2.2,2.4
			c-0.8,1-1.6,2-2.5,3.1c-0.9,1.1-1.7,2.2-2.5,3.1c-1,1.2-1.9,2.4-2.7,3.5c-0.9,1.1-1.7,2.3-2.5,3.5c-0.8,1.2-1.6,2.5-2.4,3.9
			c-0.8,1.3-1.6,2.8-2.4,4.5c-0.7,1.5-1.3,3.3-1.7,5.5c-0.4,2.2-0.6,4.2-0.6,6.1c0,0.8,0.1,1.6,0.3,2.4c0.2,0.8,0.5,1.5,0.8,2.2
			c0.4,0.7,0.9,1.2,1.5,1.6c0.6,0.4,1.3,0.6,2.2,0.6c2.1,0,3.9-0.1,5.4-0.3c1.4-0.2,2.8-0.6,4-1.1c1.3-0.5,2.5-1.3,3.8-2.2
			c1.3-0.9,2.8-2,4.6-3.4c0.8-0.6,1.7-1.4,2.5-2.3c0.8-0.9,1.7-1.8,2.5-2.8c0.8-1,1.6-2,2.4-3.1c0.8-1.1,1.5-2.1,2.2-3.2
			c0.4-0.6,0.7-1.3,0.9-2.2c0.3-0.9,0.5-1.8,0.6-2.7c0.2-0.9,0.3-1.8,0.3-2.6C1654,437.1,1654,436.6,1654,436.2L1654,436.2z"/>
	</g>
</g>
</svg>
